HIERARCHY
ROOT Hips
{
	OFFSET -0.001795 -0.223333 0.028219
	CHANNELS 6 Xposition Yposition Zposition Zrotation Yrotation Xrotation 
	JOINT LeftUpLeg
	{
		OFFSET 0.069520 -0.091406 -0.006815
		CHANNELS 3 Zrotation Yrotation Xrotation
		JOINT LeftLeg
		{
			OFFSET 0.034277 -0.375199 -0.004496
			CHANNELS 3 Zrotation Yrotation Xrotation
			JOINT LeftFoot
			{
				OFFSET -0.013596 -0.397961 -0.043693
				CHANNELS 3 Zrotation Yrotation Xrotation
				JOINT LeftToe
				{
					OFFSET 0.026358 -0.055791 0.119288
					CHANNELS 3 Zrotation Yrotation Xrotation
					End Site
					{
						OFFSET 0.000000 0.000000 0.000000
					}
				}
			}
		}
	}
	JOINT RightUpLeg
	{
		OFFSET -0.067670 -0.090522 -0.004320
		CHANNELS 3 Zrotation Yrotation Xrotation
		JOINT RightLeg
		{
			OFFSET -0.038290 -0.382569 -0.008850
			CHANNELS 3 Zrotation Yrotation Xrotation
			JOINT RightFoot
			{
				OFFSET 0.015774 -0.398415 -0.042312
				CHANNELS 3 Zrotation Yrotation Xrotation
				JOINT RightToe
				{
					OFFSET -0.025372 -0.048144 0.123348
					CHANNELS 3 Zrotation Yrotation Xrotation
					End Site
					{
						OFFSET 0.000000 0.000000 0.000000
					}
				}
			}
		}
	}
	JOINT Spine
	{
		OFFSET -0.002533 0.108963 -0.026696
		CHANNELS 3 Zrotation Yrotation Xrotation
		JOINT Spine1
		{
			OFFSET 0.005487 0.135180 0.001092
			CHANNELS 3 Zrotation Yrotation Xrotation
			JOINT Spine2
			{
				OFFSET 0.001457 0.052922 0.025425
				CHANNELS 3 Zrotation Yrotation Xrotation
				JOINT Neck
				{
					OFFSET -0.002778 0.213870 -0.042857
					CHANNELS 3 Zrotation Yrotation Xrotation
					JOINT Head
					{
						OFFSET 0.005152 0.064970 0.051349
						CHANNELS 3 Zrotation Yrotation Xrotation
						End Site
						{
							OFFSET 0.000000 0.000000 0.000000
						}
					}
				}
				JOINT LeftShoulder
				{
					OFFSET 0.078845 0.121749 -0.034090
					CHANNELS 3 Zrotation Yrotation Xrotation
					JOINT LeftArm
					{
						OFFSET 0.090977 0.030469 -0.008868
						CHANNELS 3 Zrotation Yrotation Xrotation
						JOINT LeftForeArm
						{
							OFFSET 0.259612 -0.012772 -0.027456
							CHANNELS 3 Zrotation Yrotation Xrotation
							JOINT LeftHand
							{
								OFFSET 0.249234 0.008986 -0.001171
								CHANNELS 3 Zrotation Yrotation Xrotation
								End Site
								{
									OFFSET 0.000000 0.000000 0.000000
								}
							}
						}
					}
				}
				JOINT RightShoulder
				{
					OFFSET -0.081759 0.118833 -0.038615
					CHANNELS 3 Zrotation Yrotation Xrotation
					JOINT RightArm
					{
						OFFSET -0.096012 0.032551 -0.009143
						CHANNELS 3 Zrotation Yrotation Xrotation
						JOINT RightForeArm
						{
							OFFSET -0.253742 -0.013329 -0.021401
							CHANNELS 3 Zrotation Yrotation Xrotation
							JOINT RightHand
							{
								OFFSET -0.255298 0.007772 -0.005559
								CHANNELS 3 Zrotation Yrotation Xrotation
								End Site
								{
									OFFSET 0.000000 0.000000 0.000000
								}
							}
						}
					}
				}
			}
		}
	}
}
MOTION
Frames: 14
Frame Time: 0.050000
-0.007581 0.951522 -0.039440 1.270677 12.695349 1.487579 10.183071 -0.648632 -13.676229 -7.058466 0.530893 19.636719 6.000139 15.549092 13.467837 0.000000 0.000000 0.000000 2.867369 0.309139 -2.523700 4.511914 -0.644263 2.066934 -10.501346 -25.300583 4.709085 0.000000 0.000000 0.000000 7.813498 -0.656047 4.544372 -6.399844 2.536403 -19.665220 -1.278498 11.245882 31.235314 13.823954 -3.013993 -28.337748 0.000000 0.000000 0.000000 -11.978546 -11.351360 1.106255 -37.138179 -2.106195 -4.669032 -123.924592 -61.095540 90.837728 0.000000 0.000000 0.000000 22.220891 -3.987539 1.943839 46.937528 12.113895 -3.792007 103.403729 60.953581 90.420968 0.000000 0.000000 0.000000 
-0.008817 0.950205 -0.036182 1.542046 13.221531 1.156453 9.924655 -0.773736 -16.352946 -7.729747 0.525518 25.026430 6.406763 16.197250 13.558920 0.000000 0.000000 0.000000 2.547059 0.226451 -1.856228 4.736043 -0.696330 2.481541 -10.421742 -25.633946 3.136876 0.000000 0.000000 0.000000 7.984773 -0.802009 5.712948 -6.787393 2.642021 -19.810121 -1.114299 10.657854 31.348850 13.298088 -2.942986 -27.439471 0.000000 0.000000 0.000000 -12.335544 -11.294713 1.075070 -37.008387 -2.573698 -4.539930 -125.601379 -61.899099 94.082489 0.000000 0.000000 0.000000 22.134809 -4.288380 1.660203 47.094095 12.479401 -3.639771 104.435795 60.469176 91.010317 0.000000 0.000000 0.000000 
-0.009552 0.948535 -0.031353 1.670431 13.205523 0.726676 9.993369 -0.926160 -20.040786 -9.023581 0.730750 32.305225 6.928690 17.011553 14.098588 0.000000 0.000000 0.000000 2.317156 0.147679 -1.222135 4.726838 -0.707695 3.168471 -9.987868 -25.169513 1.431972 0.000000 0.000000 0.000000 7.922653 -0.948666 7.035142 -6.393637 2.554471 -19.661973 -1.213557 10.741134 30.992845 12.562190 -2.724258 -26.233245 0.000000 0.000000 0.000000 -12.735952 -11.168528 0.918066 -36.949558 -2.828928 -4.395697 -127.203884 -61.509149 95.581448 0.000000 0.000000 0.000000 21.771332 -4.042496 1.761653 48.042980 12.139038 -3.671393 104.479894 60.116468 90.863566 0.000000 0.000000 0.000000 
-0.009402 0.947289 -0.024567 1.810786 12.670130 0.338819 10.632022 -1.017481 -24.218918 -10.919125 1.434008 39.398939 7.583033 18.100572 16.171096 0.000000 0.000000 0.000000 1.905295 0.144989 -1.227958 4.907993 -0.771791 5.029450 -9.971658 -25.275817 0.740587 0.000000 0.000000 0.000000 8.144002 -1.133312 8.427642 -6.864669 2.689833 -19.451983 -0.981780 10.889330 30.266328 11.427534 -2.301232 -24.983916 0.000000 0.000000 0.000000 -13.147545 -10.698749 0.678359 -36.486092 -3.230656 -4.164183 -129.354573 -61.972444 99.010555 0.000000 0.000000 0.000000 21.581686 -3.935779 1.673440 47.405153 11.946087 -3.662529 104.346099 58.846072 88.847601 0.000000 0.000000 0.000000 
-0.008027 0.946531 -0.015378 2.139469 11.486162 -0.148090 11.017903 -1.045408 -27.943540 -12.053777 2.222343 43.271613 7.855963 18.522311 18.245851 0.000000 0.000000 0.000000 1.344806 0.094181 -0.848708 4.930083 -0.804616 7.123809 -9.130043 -23.384531 -0.284495 0.000000 0.000000 0.000000 8.198675 -1.217094 9.226676 -6.910235 2.695315 -19.327362 -0.708883 12.084216 30.241517 11.214079 -2.029950 -25.201497 0.000000 0.000000 0.000000 -14.052086 -10.855394 0.450533 -35.380528 -3.700645 -3.756601 -132.313000 -62.067656 102.748858 0.000000 0.000000 0.000000 21.181018 -3.183023 2.175831 46.714064 13.261447 -3.168169 102.681981 59.756212 88.060924 0.000000 0.000000 0.000000 
-0.005551 0.945162 -0.003577 2.668630 10.855667 -1.038354 10.677525 -1.216649 -31.143780 -12.579621 2.678206 43.801057 8.577302 19.402270 17.861515 0.000000 0.000000 0.000000 0.877488 -0.076342 0.626252 4.650122 -0.762607 8.344252 -8.514141 -22.057368 -1.431749 0.000000 0.000000 0.000000 7.652405 -1.307479 10.648649 -6.932866 2.674528 -19.908204 -0.210838 12.979776 30.204988 11.535302 -2.462599 -23.777571 0.000000 0.000000 0.000000 -14.028992 -11.536520 0.675374 -35.327615 -4.645084 -3.477100 -135.494982 -62.807660 107.512871 0.000000 0.000000 0.000000 20.729814 -2.073180 2.859413 46.069067 15.677447 -2.250402 100.404115 61.156531 87.032438 0.000000 0.000000 0.000000 
-0.002091 0.944047 0.010517 2.680675 10.538596 -1.857312 10.214933 -1.391527 -32.955360 -11.352411 2.147800 40.053243 8.043643 18.637557 16.717409 0.000000 0.000000 0.000000 0.865153 -0.228954 1.938288 4.561496 -0.778704 10.005081 -8.195993 -21.259716 -1.548470 0.000000 0.000000 0.000000 7.327722 -1.378293 11.687320 -7.065113 2.743346 -19.398295 0.104191 13.748640 29.368257 11.245969 -2.477938 -22.417614 0.000000 0.000000 0.000000 -13.692981 -12.233463 0.955093 -34.656520 -6.537186 -2.864768 -138.041985 -63.779972 111.600674 0.000000 0.000000 0.000000 20.613840 -0.507127 3.842277 45.089700 18.154342 -1.289590 97.740407 62.887482 85.660884 0.000000 0.000000 0.000000 
0.002779 0.941842 0.027298 2.783259 10.253124 -2.529909 9.833180 -1.544171 -34.395831 -9.573319 1.456015 34.081341 6.563762 16.732763 17.425405 0.000000 0.000000 0.000000 0.624709 -0.378091 3.248577 4.138254 -0.712415 11.596779 -7.618899 -19.924050 -2.660335 0.000000 0.000000 0.000000 6.929472 -1.418984 12.568149 -7.278332 2.835734 -18.885206 0.414055 14.897909 28.712599 11.679383 -2.504212 -22.857944 0.000000 0.000000 0.000000 -13.586273 -12.852183 1.044799 -34.012838 -7.339760 -2.494843 -140.103072 -65.174591 115.257741 0.000000 0.000000 0.000000 20.332081 0.498057 4.557039 45.372942 20.529071 -0.251251 94.643230 64.458748 84.230256 0.000000 0.000000 0.000000 
0.009474 0.939289 0.047070 2.905465 9.947698 -3.361310 9.850649 -1.456401 -33.954088 -8.661309 1.196709 25.233725 5.786546 16.136230 20.496964 0.000000 0.000000 0.000000 0.831275 -0.598206 5.017987 3.333366 -0.518261 12.165136 -6.850118 -17.916590 -3.129083 0.000000 0.000000 0.000000 5.575384 -1.398815 14.002265 -7.118071 2.782820 -19.106401 1.294680 15.240738 28.125899 10.828822 -1.950373 -22.657266 0.000000 0.000000 0.000000 -13.384620 -12.076766 0.715396 -33.849325 -7.814988 -2.344713 -140.537849 -63.683431 114.203170 0.000000 0.000000 0.000000 21.779695 1.829397 5.684214 43.393390 22.254657 0.056617 93.046812 66.094285 83.545523 0.000000 0.000000 0.000000 
0.018179 0.936124 0.069042 2.460127 9.585261 -2.608473 9.862943 -1.426612 -33.991060 -6.820793 0.748753 17.029985 5.492603 15.678572 19.503513 0.000000 0.000000 0.000000 0.180674 -0.575443 5.069857 4.240102 -0.744953 12.817533 -6.280710 -16.417418 -5.522152 0.000000 0.000000 0.000000 5.398417 -1.273732 13.011240 -6.536599 2.609801 -19.106049 1.305322 17.567401 27.983764 11.762898 -1.970946 -23.679869 0.000000 0.000000 0.000000 -12.595452 -12.824123 0.758115 -32.866827 -6.734002 -2.382960 -144.145645 -63.126609 117.237560 0.000000 0.000000 0.000000 22.312259 0.060228 5.273876 43.661411 22.585156 0.073768 93.787808 65.132224 84.356597 0.000000 0.000000 0.000000 
0.029136 0.932191 0.093539 1.725244 7.934656 -3.540284 10.179103 -1.034482 -32.006571 -5.046335 0.476127 9.659076 5.033756 15.126321 21.037605 0.000000 0.000000 0.000000 0.150119 -0.854421 7.525706 3.691079 -0.555752 13.007983 -5.480955 -13.795466 -6.851176 0.000000 0.000000 0.000000 5.558359 -1.402503 14.296495 -6.863850 2.608199 -20.457514 1.723330 18.301313 28.965673 13.564877 -2.811283 -25.253162 0.000000 0.000000 0.000000 -11.823101 -11.494431 0.437596 -33.345572 -5.174141 -2.963154 -142.706269 -60.998057 112.944334 0.000000 0.000000 0.000000 22.435569 0.404544 5.492780 44.890589 23.722197 0.592788 97.138489 63.738642 86.734768 0.000000 0.000000 0.000000 
0.042991 0.927400 0.120982 1.881579 6.136574 -2.846106 9.752503 -0.929024 -31.411527 -3.221929 0.277513 3.974810 5.359466 15.386419 21.789923 0.000000 0.000000 0.000000 -1.139638 -0.860634 8.650029 3.960425 -0.552423 12.688977 -5.806196 -14.395292 -7.387041 0.000000 0.000000 0.000000 4.727426 -1.152442 13.093508 -7.159788 2.635982 -20.738886 2.498764 19.598356 29.074757 12.792793 -2.224308 -25.415387 0.000000 0.000000 0.000000 -10.744503 -11.773342 0.788312 -33.507114 -2.724710 -3.628300 -138.929332 -59.317803 105.348110 0.000000 0.000000 0.000000 22.632568 -0.381086 5.106888 46.065790 22.102555 0.091414 99.173423 61.754415 87.237614 0.000000 0.000000 0.000000 
0.059865 0.923808 0.151104 1.151532 5.431854 -2.795401 9.539801 -0.864170 -30.240345 -2.371392 0.214465 1.480819 4.578814 14.430317 22.718786 0.000000 0.000000 0.000000 -1.132480 -0.970548 9.775731 3.051014 -0.319428 13.796166 -5.751151 -14.072253 -7.821702 0.000000 0.000000 0.000000 5.023082 -1.142485 12.674083 -7.077538 2.582853 -21.060388 2.217744 18.575315 29.769624 11.871560 -1.790198 -25.795878 0.000000 0.000000 0.000000 -11.071278 -10.393325 0.401455 -34.013054 -1.434561 -4.149156 -132.907498 -56.620217 94.742543 0.000000 0.000000 0.000000 23.007383 -0.910663 4.568928 47.457242 20.533862 -0.512190 97.075643 60.004812 83.051832 0.000000 0.000000 0.000000 
0.079243 0.920275 0.183148 0.537615 4.368511 -2.279051 9.613195 -0.714223 -29.208538 -2.660802 0.256587 1.141790 6.069721 16.175716 23.026276 0.000000 0.000000 0.000000 -2.104327 -0.873563 9.930512 3.335820 -0.359070 15.263934 -5.418706 -12.664291 -8.725344 0.000000 0.000000 0.000000 5.132849 -1.051134 11.619493 -6.760507 2.497531 -20.446000 2.021047 18.162279 29.732454 10.970309 -1.302751 -26.262330 0.000000 0.000000 0.000000 -11.257376 -9.343059 0.096194 -34.678701 0.586437 -4.817743 -125.663991 -54.195191 82.955582 0.000000 0.000000 0.000000 23.366123 -2.621027 3.263507 47.651027 16.692506 -2.031684 98.178378 57.408460 81.051797 0.000000 0.000000 0.000000 
